<?xml version="1.0" encoding="UTF-8"?>
<svg width="322px" height="230px" viewBox="0 0 322 230" version="1.1" xmlns="http://www.w3.org/2000/svg" xmlns:xlink="http://www.w3.org/1999/xlink">
    <title>暂无任务</title>
    <defs>
        <linearGradient x1="50%" y1="0%" x2="50%" y2="86.0706991%" id="linearGradient-1">
            <stop stop-color="#D2DEFB" offset="0%"></stop>
            <stop stop-color="#F3F4F8" offset="100%"></stop>
        </linearGradient>
        <linearGradient x1="50%" y1="0%" x2="50%" y2="43.9096274%" id="linearGradient-2">
            <stop stop-color="#E5ECF8" offset="0%"></stop>
            <stop stop-color="#F3F4F6" offset="100%"></stop>
        </linearGradient>
        <linearGradient x1="50%" y1="0%" x2="50%" y2="86.0706991%" id="linearGradient-3">
            <stop stop-color="#D8E3FB" offset="0%"></stop>
            <stop stop-color="#F3F4F8" offset="100%"></stop>
        </linearGradient>
        <linearGradient x1="50%" y1="0%" x2="50%" y2="43.9096274%" id="linearGradient-4">
            <stop stop-color="#E5ECF8" offset="0%"></stop>
            <stop stop-color="#F3F4F6" offset="100%"></stop>
        </linearGradient>
        <linearGradient x1="50%" y1="0%" x2="50%" y2="86.0706991%" id="linearGradient-5">
            <stop stop-color="#D8E3FB" offset="0%"></stop>
            <stop stop-color="#F3F4F8" offset="100%"></stop>
        </linearGradient>
        <linearGradient x1="50%" y1="0%" x2="50%" y2="43.9096274%" id="linearGradient-6">
            <stop stop-color="#E5ECF8" offset="0%"></stop>
            <stop stop-color="#F3F4F6" offset="100%"></stop>
        </linearGradient>
        <linearGradient x1="50%" y1="0%" x2="50%" y2="100%" id="linearGradient-7">
            <stop stop-color="#D4E0FC" offset="0%"></stop>
            <stop stop-color="#E0E8FE" offset="100%"></stop>
        </linearGradient>
        <linearGradient x1="50%" y1="0%" x2="50%" y2="88.0272486%" id="linearGradient-8">
            <stop stop-color="#D0DDFC" offset="0%"></stop>
            <stop stop-color="#F3F4F8" offset="100%"></stop>
        </linearGradient>
        <linearGradient x1="50%" y1="0%" x2="50%" y2="100%" id="linearGradient-9">
            <stop stop-color="#E8EDF8" offset="0%"></stop>
            <stop stop-color="#F4F5F6" offset="100%"></stop>
        </linearGradient>
        <linearGradient x1="50%" y1="0%" x2="50%" y2="88.0272486%" id="linearGradient-10">
            <stop stop-color="#D0DDFC" offset="0%"></stop>
            <stop stop-color="#F3F4F8" offset="100%"></stop>
        </linearGradient>
        <linearGradient x1="50%" y1="0%" x2="50%" y2="100%" id="linearGradient-11">
            <stop stop-color="#E8EDF8" offset="0%"></stop>
            <stop stop-color="#F4F5F6" offset="100%"></stop>
        </linearGradient>
        <linearGradient x1="51.503123%" y1="45.4855527%" x2="50%" y2="54.8995405%" id="linearGradient-12">
            <stop stop-color="#DBE7FC" offset="0%"></stop>
            <stop stop-color="#F3F5F6" offset="100%"></stop>
        </linearGradient>
        <linearGradient x1="35.9420191%" y1="16.5971959%" x2="59.7029676%" y2="13.3258245%" id="linearGradient-13">
            <stop stop-color="#C2D6FF" offset="0%"></stop>
            <stop stop-color="#D4E1FC" offset="100%"></stop>
        </linearGradient>
        <linearGradient x1="50%" y1="34.0430045%" x2="50%" y2="100%" id="linearGradient-14">
            <stop stop-color="#DBE6FD" offset="0%"></stop>
            <stop stop-color="#B9D0FE" offset="100%"></stop>
        </linearGradient>
        <linearGradient x1="50%" y1="0%" x2="62.0816312%" y2="74.5544307%" id="linearGradient-15">
            <stop stop-color="#D7E3FB" offset="0%"></stop>
            <stop stop-color="#C4D7FF" offset="48.1247168%"></stop>
            <stop stop-color="#C4D7FF" offset="100%"></stop>
        </linearGradient>
        <linearGradient x1="19.842173%" y1="36.0862893%" x2="50%" y2="68.5057168%" id="linearGradient-16">
            <stop stop-color="#CDE0FE" offset="0%"></stop>
            <stop stop-color="#E0EAFD" offset="100%"></stop>
        </linearGradient>
        <linearGradient x1="54.1142829%" y1="18.9830254%" x2="54.1142829%" y2="81.1449522%" id="linearGradient-17">
            <stop stop-color="#9EBDFD" offset="0%"></stop>
            <stop stop-color="#C6D8FF" offset="100%"></stop>
        </linearGradient>
        <linearGradient x1="12.3230927%" y1="40.0796044%" x2="105.217126%" y2="52.9107624%" id="linearGradient-18">
            <stop stop-color="#DAE5FC" offset="0%"></stop>
            <stop stop-color="#AAC6FE" offset="100%"></stop>
        </linearGradient>
    </defs>
    <g id="页面-1" stroke="none" stroke-width="1" fill="none" fill-rule="evenodd">
        <g id="1-消息-暂无内容" transform="translate(-212.000000, -531.000000)">
            <g id="编组" transform="translate(164.000000, 476.500000)">
                <g id="暂无任务" transform="translate(48.046482, 55.883851)">
                    <g id="编组-4">
                        <g id="编组-14" opacity="0.352608817" transform="translate(41.912889, 43.957420)" fill-rule="nonzero">
                            <polygon id="矩形" fill="url(#linearGradient-1)" points="-7.50575491e-14 66.1746279 22.2129382 3.09915041e-13 22.2129382 66.1746279"></polygon>
                            <polygon id="矩形备份-12" fill="url(#linearGradient-2)" points="21.5314278 0.0681207408 51.7947891 43.2759093 47.5621098 54.5627016 21.5314278 66.1746279"></polygon>
                        </g>
                        <g id="编组-14备份-5" transform="translate(174.466658, 42.253644)" fill-rule="nonzero">
                            <polygon id="矩形" fill="url(#linearGradient-3)" points="-1.3355169e-13 44.922389 34.3891775 0.681510383 31.3494776 54.1800755"></polygon>
                            <polygon id="矩形备份-12" fill="url(#linearGradient-4)" points="34.3891775 0 85.8703083 59.2914033 31.3494776 54.3981666"></polygon>
                        </g>
                        <g id="编组-14备份-9" transform="translate(235.121082, 88.596350)" fill-rule="nonzero">
                            <polygon id="矩形" fill="url(#linearGradient-5)" points="3.53496843e-13 44.922389 24.875129 0.681510383 22.6763871 54.1800755"></polygon>
                            <polygon id="矩形备份-12" fill="url(#linearGradient-6)" points="25.0343802 0 62.3582001 59.2914033 22.8305978 54.3981666"></polygon>
                        </g>
                        <g id="编组-24" opacity="0.652297247" transform="translate(114.493744, 0.000000)">
                            <g id="编组-23" transform="translate(0.000000, 29.986797)">
                                <path d="M14.1754081,3.40721171 L36.258844,3.40721171 L36.258844,13.3610116 L36.258844,22.3479133 L38.3620283,36.2495993 L51.1132787,79.1622118 C42.0434564,84.0883897 33.3435097,86.5514786 25.0134387,86.5514786 C16.6833676,86.5514786 8.34555473,84.0883897 0,79.1622118 L11.5464277,36.2495993 L14.1754081,22.1013639 L14.1754081,13.102887 L14.1754081,3.40721171 Z" id="矩形" fill="url(#linearGradient-7)" fill-rule="nonzero"></path>
                                <ellipse id="椭圆形" fill="#E1E7FF" fill-rule="nonzero" cx="25.5566394" cy="3.40721171" rx="11.2449213" ry="3.40755192"></ellipse>
                                <path d="M14.311718,16.355909 C14.311718,18.2378479 19.1936795,19.7634609 25.2158842,19.7634609 C31.2380888,19.7634609 36.1200503,18.2378479 36.1200503,16.355909" id="路径" stroke="#AEACEB" stroke-width="2" opacity="0.421526228"></path>
                                <path d="M14.311718,24.5340336 C14.311718,26.4159725 19.1936795,27.9415855 25.2158842,27.9415855 C31.2380888,27.9415855 36.1200503,26.4159725 36.1200503,24.5340336" id="路径" stroke="#AEACEB" stroke-width="2" opacity="0.421526228"></path>
                                <path d="M12.2671869,32.7121582 C12.2671869,34.5940971 17.9119549,36.1197102 24.875129,36.1197102 C31.8383031,36.1197102 37.4830711,34.5940971 37.4830711,32.7121582" id="路径" stroke="#AEACEB" stroke-width="2" opacity="0.421526228"></path>
                            </g>
                            <g id="编组-22" transform="translate(18.400780, 0.000000)" fill-rule="nonzero">
                                <path d="M9.01668973,33.3940088 C13.7024056,33.3940088 6.75355936,22.7162446 17.5009289,19.4049506 C25.1820657,17.0383713 31.7752908,25.7889442 33.8884425,20.3497954 C40.9082946,2.28104103 51.8462997,6.6182682 48.4209028,3.13191917 C44.9955059,-0.354429868 20.5650861,-1.68115333 9.01668973,3.13191917 C2.10815898,6.01121586 0,14.1465075 0,17.0383713 C0,24.7643148 4.33097382,33.3940088 9.01668973,33.3940088 Z" id="椭圆形" fill="#E0E8FF"></path>
                                <path d="M8.91310898,33.3940088 C13.5449969,33.3940088 6.67597669,24.0726075 17.299884,21.1819368 C24.8927824,19.1159766 31.7765883,25.9301675 33.8654649,21.1819368 C40.804675,5.40839965 52.6809124,4.0890623 45.4534744,4.0890623 C43.2205353,4.0890623 36.9861754,14.2517154 31.5359936,16.7578519 C29.0894526,17.8828357 24.2238913,10.9459312 20.6871004,12.2476851 C18.8492335,12.9241318 11.715082,14.0819995 8.91310898,18.7647881 C6.8133853,22.2739446 0,17.2708564 0,19.1159766 C0,25.8605177 4.28122104,33.3940088 8.91310898,33.3940088 Z" id="椭圆形备份-7" fill="#D7DDF3"></path>
                            </g>
                        </g>
                        <g id="编组-13" opacity="0.733537946" transform="translate(6.815104, 108.019396)" fill-rule="nonzero">
                            <polygon id="矩形" fill="url(#linearGradient-8)" points="26.5789049 0.340755192 26.5789049 92.0039017 0 92.0039017"></polygon>
                            <polygon id="矩形备份-11" fill="url(#linearGradient-9)" points="26.7643761 0 85.8703083 75.3203671 38.7632996 90.6318639 26.5789049 92.0039017"></polygon>
                        </g>
                        <g id="编组-13备份" opacity="0.456287202" transform="translate(68.491794, 84.507288)" fill-rule="nonzero">
                            <path d="M0.0882247052,41.3250082 C0.908604609,30.3994433 7.66478944,16.6244406 20.3567792,0 L22.1490875,75.3068974 L14.791236,74.1201762 C4.16884859,63.1822957 -0.732155199,52.2505731 0.0882247052,41.3250082 Z" id="矩形" fill="url(#linearGradient-10)"></path>
                            <polygon id="矩形备份-11" fill="url(#linearGradient-11)" points="20.4453115 0 55.202341 30.9195935 49.0435726 57.6466997 20.4453115 75.9888313"></polygon>
                        </g>
                        <ellipse id="椭圆形" fill="url(#linearGradient-12)" fill-rule="nonzero" cx="160.495695" cy="169.014575" rx="160.495695" ry="58.609893"></ellipse>
                        <g id="编组" transform="translate(34.075519, 142.435670)" fill-rule="nonzero">
                            <polygon id="路径" fill="#B3CCFF" points="5.45208307 16.3562492 9.54114537 16.3562492 9.54114537 23.171353 5.45208307 23.171353"></polygon>
                            <polygon id="路径" fill="#A8C4FC" points="7.8375174 17.71927 15.6747388 17.71927 11.7562761 10.9040176 7.8375174 4.0890623 3.91875868 10.9040176 0 17.71927"></polygon>
                            <polygon id="路径" fill="#B9D1FF" points="7.49661422 14.311718 14.311718 14.311718 10.9041661 8.51887979 7.49661422 2.72604153 4.0890623 8.51887979 0.681510383 14.311718"></polygon>
                            <polygon id="路径" fill="#CADDFD" points="7.83736941 10.2226557 13.6302077 10.2226557 10.7337885 5.11118115 7.83736941 0 4.94095028 5.11118115 2.04453115 10.2226557"></polygon>
                        </g>
                        <g id="编组备份-5" opacity="0.576892671" transform="translate(264.085274, 137.324342)" fill-rule="nonzero">
                            <polygon id="路径" fill="#B3CCFF" points="5.45208307 16.3562492 9.54114537 16.3562492 9.54114537 23.171353 5.45208307 23.171353"></polygon>
                            <polygon id="路径" fill="#A8C4FC" points="7.8375174 17.71927 15.6747388 17.71927 11.7562761 10.9040176 7.8375174 4.0890623 3.91875868 10.9040176 0 17.71927"></polygon>
                            <polygon id="路径" fill="#B9D1FF" points="7.49661422 14.311718 14.311718 14.311718 10.9041661 8.51887979 7.49661422 2.72604153 4.0890623 8.51887979 0.681510383 14.311718"></polygon>
                            <polygon id="路径" fill="#CADDFD" points="7.83736941 10.2226557 13.6302077 10.2226557 10.7337885 5.11118115 7.83736941 0 4.94095028 5.11118115 2.04453115 10.2226557"></polygon>
                        </g>
                    </g>
                    <g id="编组-25" transform="translate(68.151038, 81.099736)" fill-rule="nonzero">
                        <ellipse id="椭圆形" fill="#D2E0F9" opacity="0.707356771" cx="114.152989" cy="89.6186154" rx="64.4027312" ry="22.8305978"></ellipse>
                        <ellipse id="椭圆形备份" fill="#D2E0F9" opacity="0.707356771" transform="translate(30.498731, 97.416441) rotate(-1.000000) translate(-30.498731, -97.416441) " cx="30.4987314" cy="97.4164412" rx="30.1568345" ry="8.3485022"></ellipse>
                        <polygon id="矩形" fill="url(#linearGradient-13)" points="49.750258 16.3035451 99.792185 0 99.792185 68.1106435 51.2813498 85.1360936"></polygon>
                        <polygon id="路径-67" fill="url(#linearGradient-14)" points="49.750258 17.71927 51.3474246 86.1711955 115.785837 106.472742 115.785837 35.8330452"></polygon>
                        <polygon id="矩形" fill="url(#linearGradient-15)" points="99.500516 6.19830082e-13 166.970044 17.4411139 164.035091 86.3363905 99.792185 68.1633474"></polygon>
                        <polygon id="路径-66" fill="url(#linearGradient-16)" points="38.1645815 45.5616955 103.975559 64.8529271 115.639867 35.8330452 49.6042873 17.71927"></polygon>
                        <polygon id="矩形" fill="url(#linearGradient-17)" points="115.856765 37.7612272 167.080235 19.7638011 164.521123 85.9387449 115.856765 107.956797"></polygon>
                        <polygon id="矩形" fill="url(#linearGradient-18)" points="115.856765 36.3689413 168.022335 19.0822907 178.348473 44.6772317 128.816294 66.468811"></polygon>
                    </g>
                    <g id="编组-42" transform="translate(68.151038, 124.034890)">
                        <g id="编组" transform="translate(0.000000, 3.748307)" fill-rule="nonzero">
                            <polygon id="路径" fill="#FFB9B9" points="11.8927307 40.0201468 8.1781246 39.7856486 9.42131938 45.2377317 13.6302077 43.5376199"></polygon>
                            <polygon id="路径" fill="#2F2E41" points="47.5949238 28.7157376 38.5474206 20.0218476 33.3751865 23.9750197 23.171353 36.112493 24.3276833 37.9037743 36.7347948 29.595936 45.1416282 40.467159 53.1578099 36.4985452"></polygon>
                            <polygon id="路径" fill="#689FF3" points="47.5949238 28.7157376 38.5474206 20.0218476 33.3751865 23.9750197 23.171353 36.112493 24.3276833 37.9037743 36.7347948 29.595936 45.1416282 40.467159 53.1578099 36.4985452"></polygon>
                            <path d="M47.7057268,34.7778851 L46.5595504,35.6965863 L37.2042713,32.4177734 L35.0203403,31.4990722 L30.6679672,32.4177734 C30.6679672,32.4177734 30.6679672,28.7429684 34.7725182,28.8855255 L39.0009804,29.9309442 L44.0038865,30.3269361 L47.7057268,34.7778851 L47.7057268,34.7778851 Z" id="路径" fill="#FFD2D2"></path>
                            <path d="M60.7940874,36.3780967 C62.5183397,35.015076 62.9261255,36.8324372 62.0174449,41.8301798 C61.1087643,46.8279227 57.2417094,48.1909435 50.4162797,45.9192421 L34.9119181,40.1402501 L12.2207203,44.2414702 L11.5856765,39.3635041 L32.3407654,30.2445034 L50.5401905,36.272054 L55.8838514,30.2445034 L60.7940874,36.3780967 Z" id="路径" fill="#689FF3"></path>
                            <path d="M38.3730143,21.6739106 L36.4733041,22.0663788 L36.0596576,21.5640195 C35.3855668,20.7633845 35.2476847,19.6330761 35.7072918,18.6754538 L41.023416,11.5325331 C41.023416,11.5325331 42.5401201,8.03171698 44.9453982,9.46030109 C47.3506763,10.8888852 42.9231262,13.2279956 42.9231262,13.2279956 L40.2727241,17.5294468 L40.5331684,19.7429672 L38.3730143,21.6739106 Z" id="路径" fill="#FFD2D2"></path>
                            <path d="M44.9796852,8.09541592 C44.9794345,9.92143392 45.9535933,11.6088514 47.5351468,12.5219328 C49.1167,13.4350141 51.0653263,13.4350141 52.6468795,12.5219328 C54.2284331,11.6088514 55.2025918,9.92143392 55.2023411,8.09541592 C55.2025918,6.26939792 54.2284331,4.58198043 52.6468795,3.66889905 C51.0653263,2.75581769 49.1167,2.75581769 47.5351468,3.66889905 C45.9535933,4.58198043 44.9794345,6.26939792 44.9796852,8.09541592 L44.9796852,8.09541592 Z" id="路径" fill="#FFD2D2"></path>
                            <path d="M48.3872372,11.7769981 L50.5991095,17.2958061 L55.8838514,14.9859679 C55.8838514,14.9859679 54.161857,10.6298302 54.161857,10.4903098 C54.161857,10.3507893 48.3872372,11.7769981 48.3872372,11.7769981 L48.3872372,11.7769981 Z" id="路径" fill="#F8C8C8"></path>
                            <path d="M63.3804656,27.8747059 C63.3804656,30.895036 62.9523688,32.7227229 62.0174449,35.5881645 L61.5885281,36.5020079 L49.7617394,36.5020079 L49.2163672,35.5881645 L47.2841908,25.9850635 L39.9294555,21.8960012 L37.4830711,21.5087794 L37.9972792,20.0992919 L40.1943508,17.1564062 L42.391422,16.8930954 L43.0302869,16.3819626 L43.544495,16.6452734 L45.6013277,15.4990968 L46.2401926,15.7624077 L50.0110526,16.1186518 L52.3016165,15.6384967 L55.5894325,13.8882542 L56.9450721,14.1050984 L61.5885281,17.9463387 C62.7727652,21.1060687 63.3804656,24.4826429 63.3804656,27.8747059 Z" id="路径" fill="#FFFFFF"></path>
                            <path d="M9.22219268,41.958116 C9.22219268,41.958116 10.3537021,39.9617148 9.87969141,39.7398924 C9.4056807,39.5180699 7.37202192,38.5832469 7.37202192,38.5832469 L4.39034172,37.5533573 C4.39034172,37.5533573 0.093664183,30.9303751 0.00192018128,36.6819123 C-0.0898238206,42.4334497 3.13650705,43.8277617 3.13650705,43.8277617 C3.13650705,43.8277617 6.01115251,50.244766 7.64725394,49.2148767 C9.28335534,48.1849871 10.9041661,44.7150514 10.9041661,44.7150514 C10.9041661,44.7150514 7.95306728,43.0830726 9.22219268,41.958116 L9.22219268,41.958116 Z" id="路径" fill="#2F2E41"></path>
                            <polygon id="路径" fill="#000000" opacity="0.1" points="62.0174449 26.762629 57.1221514 29.921997 49.8103914 36.3780967 49.2491475 35.4776007 47.7057268 27.9073275 48.0954796 27.9073275 52.0865468 20.703358"></polygon>
                            <polygon id="路径" fill="#FFFFFF" points="52.0333757 20.0218476 48.0209397 27.3118851 46.5946444 27.3118851 45.6855767 29.8603091 43.6166645 30.3854389 49.1807845 36.3780967 57.0959415 29.3506244 62.0174449 26.1689555"></polygon>
                            <path d="M46.7009273,4.29190886 L46.1630391,4.49853664 C45.8249381,4.26011987 45.7327287,3.78328641 45.9632523,3.41771416 C45.9632523,3.41771416 45.9632523,3.40181966 45.9786204,3.40181966 L44.9796853,3.35413636 C47.4693392,-0.0631701808 52.1720184,-0.762525908 55.476189,1.81237482 C55.7220806,2.0031082 55.9526042,2.20973608 56.1677595,2.41636386 C56.213864,2.25741938 56.7056477,2.57530834 56.9054345,2.89319731 C56.9669074,2.63888613 57.4279543,3.89454762 57.597005,4.8005312 C57.6738463,4.49853664 57.9658425,4.99126459 57.7045827,5.45220363 C57.8736331,5.42041474 57.935106,5.8495649 57.8121602,6.08798156 C57.9812109,6.00850927 57.9658425,6.51713172 57.7660557,6.85091509 C58.0119473,6.8350206 55.7835535,10.4271661 54.8768278,12.5252334 C54.6155678,11.2695719 54.3235712,9.95033268 53.46295,9.02845468 C53.3246361,8.86951017 53.1555854,8.72646008 53.0019032,8.5834101 L52.141282,7.80458208 C51.1423469,6.8985985 50.2509896,5.7859871 48.9293211,5.43630913 C48.0225954,5.19789237 47.4386027,5.15020906 47.9457544,4.08528097 C47.5000756,4.27601436 47.0851333,4.56211443 46.6240864,4.7369534 C46.6394544,4.60979784 46.7009273,4.43495884 46.7009273,4.29190886 Z" id="路径" fill="#2F2E41"></path>
                            <path d="M51.7947891,8.7769263 C51.7947891,9.34150797 52.2524731,9.79919188 52.8170547,9.79919188 C53.3816363,9.79919188 53.8393203,9.34150797 53.8393203,8.7769263 C53.8393203,8.2123446 53.3816363,7.75466073 52.8170547,7.75466073 C52.2524731,7.75466073 51.7947891,8.2123446 51.7947891,8.7769263 Z" id="路径" fill="#FFB9B9"></path>
                        </g>
                        <polygon id="矩形" fill="#689FF3" fill-rule="nonzero" points="47.3914514 22.7901304 53.8393203 23.2631381 49.3266669 31.3407068 46.7594248 30.4995043"></polygon>
                        <path d="M56.9465592,9.26514467 L58.0185072,9.51278196 C58.6032162,9.64785926 59.0957772,9.29211278 59.2501457,8.62346867 C59.4045146,7.95482455 59.1174649,7.41897546 58.5327559,7.2838982 L57.4607881,7.03625627 C57.6934782,3.80325242 55.9203184,0.811156744 52.9967639,0.13576834 C50.0732094,-0.539620065 47.1687072,1.37184623 45.9614886,4.37973193 L44.8895607,4.13209927 C44.3048517,3.99702197 43.8122907,4.35276845 43.6579221,5.02141256 C43.5035532,5.69005668 43.790603,6.22590577 44.375312,6.36098303 L56.9465592,9.26514467 Z" id="形状备份-8" fill="#FFE190" fill-rule="nonzero"></path>
                        <path d="M55.8838514,35.1168967 C56.7925319,37.5667439 57.019702,39.900522 56.5653618,42.1182311 C56.1110217,44.3359401 55.0130325,45.2754772 53.2713948,44.9368421 L52.1355443,44.9368421 L49.750258,40.5229856 L55.8838514,35.1168967 Z" id="路径-83" fill="#689FF3" fill-rule="nonzero"></path>
                        <path d="M53.1578099,22.7901304 C56.1002807,20.3154722 57.6904714,19.0781431 57.9283826,19.0781431 C58.1662938,19.0781431 56.5761028,20.3154722 53.1578099,22.7901304 Z" id="路径-84" stroke="#689FF3" stroke-width="4"></path>
                        <line x1="47.3914514" y1="22.7901304" x2="49.2515437" y2="19.3403372" id="路径-85" stroke="#689FF3" stroke-width="4"></line>
                    </g>
                </g>
            </g>
        </g>
    </g>
</svg>